<svg width="94" height="17" viewBox="0 0 94 17" fill="none" xmlns="http://www.w3.org/2000/svg">
<path d="M0.703125 16V14.125H2.57812V3.34375H0.703125V1.46875H6.79688C8.21484 1.46875 9.32617 1.51367 10.1309 1.60352C10.9395 1.69336 11.5684 1.83398 12.0176 2.02539C12.4707 2.21289 12.8867 2.49609 13.2656 2.875C13.6055 3.21484 13.8613 3.64258 14.0332 4.1582C14.209 4.66992 14.2969 5.21875 14.2969 5.80469C14.2969 6.28125 14.2344 6.72266 14.1094 7.12891C13.9883 7.53125 13.8145 7.88867 13.5879 8.20117C13.3652 8.50977 13.0898 8.78711 12.7617 9.0332C12.4375 9.27539 12.0781 9.48047 11.6836 9.64844C11.2891 9.81641 10.8516 9.95508 10.3711 10.0645C9.89453 10.1738 9.40039 10.2539 8.88867 10.3047C8.38086 10.3516 7.83984 10.375 7.26562 10.375H6.32812V14.125H8.67188V16H0.703125ZM6.32812 8.5H7.26562C9.14062 8.5 10.0781 7.64062 10.0781 5.92188C10.0781 5.625 10.0566 5.35547 10.0137 5.11328C9.97461 4.87109 9.90039 4.63672 9.79102 4.41016C9.68164 4.18359 9.54102 3.99414 9.36914 3.8418C9.19727 3.68945 8.97266 3.56836 8.69531 3.47852C8.41797 3.38867 8.09766 3.34375 7.73438 3.34375H6.32812V8.5ZM18.6621 5.42383C19.3496 5.1543 20.0781 5.01953 20.8477 5.01953C21.6172 5.01953 22.3438 5.1543 23.0273 5.42383C23.7148 5.69336 24.3125 6.07031 24.8203 6.55469C25.3281 7.03516 25.7285 7.62891 26.0215 8.33594C26.3184 9.04297 26.4668 9.8125 26.4668 10.6445C26.4668 11.4766 26.3184 12.2461 26.0215 12.9531C25.7285 13.6602 25.3281 14.2559 24.8203 14.7402C24.3125 15.2207 23.7148 15.5957 23.0273 15.8652C22.3438 16.1348 21.6172 16.2695 20.8477 16.2695C20.0781 16.2695 19.3496 16.1348 18.6621 15.8652C17.9785 15.5957 17.3828 15.2207 16.875 14.7402C16.3711 14.2559 15.9707 13.6602 15.6738 12.9531C15.3809 12.2461 15.2344 11.4766 15.2344 10.6445C15.2344 9.8125 15.3809 9.04297 15.6738 8.33594C15.9707 7.62891 16.3711 7.03516 16.875 6.55469C17.3828 6.07031 17.9785 5.69336 18.6621 5.42383ZM20.8477 6.89453C20.5742 6.89453 20.3301 6.93359 20.1152 7.01172C19.9004 7.08984 19.7031 7.21875 19.5234 7.39844C19.3438 7.57812 19.1953 7.81055 19.0781 8.0957C18.9648 8.38086 18.875 8.73633 18.8086 9.16211C18.7461 9.58789 18.7148 10.082 18.7148 10.6445C18.7148 11.207 18.7461 11.7012 18.8086 12.127C18.875 12.5527 18.9648 12.9082 19.0781 13.1934C19.1953 13.4785 19.3438 13.7109 19.5234 13.8906C19.7031 14.0703 19.9004 14.1992 20.1152 14.2773C20.3301 14.3555 20.5742 14.3945 20.8477 14.3945C21.1914 14.3945 21.4902 14.3301 21.7441 14.2012C21.998 14.0684 22.2188 13.8574 22.4062 13.5684C22.5977 13.2793 22.7402 12.8906 22.834 12.4023C22.9316 11.9141 22.9805 11.3281 22.9805 10.6445C22.9805 9.96094 22.9316 9.375 22.834 8.88672C22.7402 8.39844 22.5977 8.00977 22.4062 7.7207C22.2188 7.43164 21.998 7.22266 21.7441 7.09375C21.4902 6.96094 21.1914 6.89453 20.8477 6.89453ZM33.6094 7.09375V5.21875H39.2344V7.09375H37.6992L35.373 9.64844L38.5078 14.125H39.4688V16H33.8438V14.125H34.5938L31.9688 10.375L34.957 7.09375H33.6094ZM27.0469 1.46875H31.5V14.125H32.6719V16H27.0469V14.125H28.2188V3.34375H27.0469V1.46875ZM43.5996 3.74219L46.4121 0.929688C46.6816 0.660156 47.0059 0.525391 47.3848 0.525391C47.7637 0.525391 48.0879 0.660156 48.3574 0.929688C48.627 1.19531 48.7617 1.51953 48.7617 1.90234C48.7617 2.21484 48.666 2.49414 48.4746 2.74023C48.2871 2.98633 48.043 3.15039 47.7422 3.23242L43.8984 4.26367C43.8672 4.27148 43.8398 4.27539 43.8164 4.27539C43.7305 4.27539 43.6562 4.24609 43.5938 4.1875C43.5352 4.125 43.5059 4.05078 43.5059 3.96484C43.5059 3.87891 43.5371 3.80469 43.5996 3.74219ZM44.0273 11.3125C44.0625 11.7656 44.1367 12.1699 44.25 12.5254C44.3633 12.8809 44.5 13.1719 44.6602 13.3984C44.8242 13.625 45.0137 13.8125 45.2285 13.9609C45.4434 14.1055 45.6641 14.209 45.8906 14.2715C46.1172 14.3301 46.3594 14.3594 46.6172 14.3594C47.4414 14.3594 48.084 14.2012 48.5449 13.8848C49.0098 13.5645 49.3809 13.0723 49.6582 12.4082L51.2168 12.9473C51.0762 13.3262 50.8965 13.6836 50.6777 14.0195C50.4629 14.3516 50.2031 14.6582 49.8984 14.9395C49.5938 15.2207 49.2539 15.4629 48.8789 15.666C48.5078 15.8652 48.0879 16.0215 47.6191 16.1348C47.1504 16.248 46.6562 16.3047 46.1367 16.3047C45.3672 16.3047 44.6387 16.1699 43.9512 15.9004C43.2676 15.6309 42.6719 15.2559 42.1641 14.7754C41.6602 14.291 41.2598 13.6953 40.9629 12.9883C40.6699 12.2812 40.5234 11.5117 40.5234 10.6797C40.5234 9.84766 40.6699 9.07422 40.9629 8.35938C41.2598 7.64453 41.6602 7.04297 42.1641 6.55469C42.6719 6.0625 43.2676 5.67773 43.9512 5.40039C44.6387 5.12305 45.3672 4.98438 46.1367 4.98438C46.9062 4.98438 47.6328 5.12305 48.3164 5.40039C49.0039 5.67773 49.5996 6.0625 50.1035 6.55469C50.6113 7.04297 51.0117 7.64453 51.3047 8.35938C51.6016 9.07422 51.75 9.84766 51.75 10.6797L51.6035 11.3125H44.0273ZM44.0684 9.4375H48.2051C48.1035 8.53906 47.8789 7.88477 47.5312 7.47461C47.1836 7.06445 46.7227 6.85938 46.1484 6.85938C45.8633 6.85938 45.6074 6.90625 45.3809 7C45.1543 7.08984 44.9512 7.23633 44.7715 7.43945C44.5918 7.63867 44.4414 7.90625 44.3203 8.24219C44.2031 8.57422 44.1191 8.97266 44.0684 9.4375ZM59.9531 16H52.4531V14.125H54.3281V3.34375H52.4531V1.46875H59.9531C60.793 1.46875 61.5859 1.5625 62.332 1.75C63.0781 1.93359 63.7383 2.19141 64.3125 2.52344C64.8906 2.85156 65.4082 3.24219 65.8652 3.69531C66.3262 4.14844 66.7051 4.64453 67.002 5.18359C67.3027 5.72266 67.5312 6.29297 67.6875 6.89453C67.8438 7.49219 67.9219 8.10547 67.9219 8.73438C67.9219 9.36328 67.8438 9.97852 67.6875 10.5801C67.5312 11.1777 67.3027 11.7461 67.002 12.2852C66.7051 12.8242 66.3262 13.3203 65.8652 13.7734C65.4082 14.2266 64.8906 14.6191 64.3125 14.9512C63.7383 15.2793 63.0781 15.5371 62.332 15.7246C61.5859 15.9082 60.793 16 59.9531 16ZM59.9531 14.125C60.5625 14.125 61.1074 13.9902 61.5879 13.7207C62.0684 13.4473 62.4609 13.0684 62.7656 12.584C63.0742 12.0996 63.3066 11.5332 63.4629 10.8848C63.623 10.2324 63.7031 9.51562 63.7031 8.73438C63.7031 8.10938 63.6562 7.52734 63.5625 6.98828C63.4688 6.44922 63.3223 5.95508 63.123 5.50586C62.9238 5.05273 62.6777 4.66797 62.3848 4.35156C62.0957 4.03125 61.7441 3.7832 61.3301 3.60742C60.916 3.43164 60.457 3.34375 59.9531 3.34375H58.0781V14.125H59.9531ZM72.5977 11.3125C72.6328 11.7656 72.707 12.1699 72.8203 12.5254C72.9336 12.8809 73.0703 13.1719 73.2305 13.3984C73.3945 13.625 73.584 13.8125 73.7988 13.9609C74.0137 14.1055 74.2344 14.209 74.4609 14.2715C74.6875 14.3301 74.9297 14.3594 75.1875 14.3594C76.0117 14.3594 76.6543 14.2012 77.1152 13.8848C77.5801 13.5645 77.9512 13.0723 78.2285 12.4082L79.7871 12.9473C79.6465 13.3262 79.4668 13.6836 79.248 14.0195C79.0332 14.3516 78.7734 14.6582 78.4688 14.9395C78.1641 15.2207 77.8242 15.4629 77.4492 15.666C77.0781 15.8652 76.6582 16.0215 76.1895 16.1348C75.7207 16.248 75.2266 16.3047 74.707 16.3047C73.9375 16.3047 73.209 16.1699 72.5215 15.9004C71.8379 15.6309 71.2422 15.2559 70.7344 14.7754C70.2305 14.291 69.8301 13.6953 69.5332 12.9883C69.2402 12.2812 69.0938 11.5117 69.0938 10.6797C69.0938 9.84766 69.2402 9.07422 69.5332 8.35938C69.8301 7.64453 70.2305 7.04297 70.7344 6.55469C71.2422 6.0625 71.8379 5.67773 72.5215 5.40039C73.209 5.12305 73.9375 4.98438 74.707 4.98438C75.4766 4.98438 76.2031 5.12305 76.8867 5.40039C77.5742 5.67773 78.1699 6.0625 78.6738 6.55469C79.1816 7.04297 79.582 7.64453 79.875 8.35938C80.1719 9.07422 80.3203 9.84766 80.3203 10.6797L80.1738 11.3125H72.5977ZM72.6387 9.4375H76.7754C76.6738 8.53906 76.4492 7.88477 76.1016 7.47461C75.7539 7.06445 75.293 6.85938 74.7188 6.85938C74.4336 6.85938 74.1777 6.90625 73.9512 7C73.7246 7.08984 73.5215 7.23633 73.3418 7.43945C73.1621 7.63867 73.0117 7.90625 72.8906 8.24219C72.7734 8.57422 72.6895 8.97266 72.6387 9.4375ZM86.4141 14.125V16H81.2578V14.125H82.377L85.1895 10.6094L82.377 7.09375H81.2578V5.21875H87.3516V7.09375H86.127L88.0312 9.47266L89.9297 7.09375H88.5234V5.21875H93.6797V7.09375H92.5078L89.6953 10.6094L92.5078 14.125H93.6797V16H87.5859V14.125H88.7578L86.8594 11.7461L84.9551 14.125H86.4141Z" fill="white"/>
</svg>
